<svg width="73" height="73" viewBox="0 0 73 73" fill="none" xmlns="http://www.w3.org/2000/svg">
<path fill-rule="evenodd" clip-rule="evenodd" d="M8.30134 31.1905C8.0135 32.6417 7.83828 34.1212 7.78191 35.6161L14.6288 55.1675C15.6055 56.3006 16.6654 57.3475 17.7957 58.302L8.30134 31.1905ZM9.36144 46.0375C10.2079 48.4546 11.3489 50.6843 12.7301 52.7007L7.83702 38.7284C8.01557 41.166 8.51499 43.6204 9.36144 46.0375ZM8.71378 29.4132C8.98995 28.3759 9.32439 27.3564 9.71471 26.3597L21.9142 61.1956C20.9873 60.6602 20.0899 60.0721 19.2269 59.4337L8.71378 29.4132ZM11.5068 22.6134C11.06 23.3954 10.6505 24.1981 10.2799 25.0185L23.1926 61.8912C23.9941 62.3012 24.8149 62.673 25.652 63.0054L11.5068 22.6134ZM12.1608 21.5258C12.5902 20.8465 13.0488 20.1847 13.5356 19.5426L29.1533 64.1395C28.3723 63.9414 27.601 63.7103 26.8416 63.4473L12.1608 21.5258ZM15.7399 16.9703C15.2213 17.5068 14.7253 18.0624 14.2528 18.6356L30.2797 64.4009C31.0066 64.5541 31.7408 64.6789 32.4808 64.7746L15.7399 16.9703ZM16.5072 16.2064C17.0139 15.721 17.5402 15.2532 18.0854 14.8042L35.6653 65.0042C34.9591 64.9934 34.2559 64.9561 33.5571 64.8929L16.5072 16.2064ZM20.5541 12.9877C19.9847 13.3606 19.4315 13.7524 18.8953 14.1618L36.699 65.0009C37.3735 64.9863 38.0503 64.9474 38.728 64.8836L20.5541 12.9877ZM21.402 12.4537C21.9645 12.1134 22.5417 11.7909 23.1333 11.4875L41.6796 64.4469C41.0279 64.5788 40.3756 64.687 39.7237 64.7719L21.402 12.4537ZM25.8158 10.2825C25.2031 10.5207 24.6031 10.7781 24.0163 11.0538L42.6402 64.235C43.2708 64.0844 43.9003 63.9112 44.5277 63.7151L25.8158 10.2825ZM29.5466 9.11709C30.1902 8.9634 30.8349 8.83318 31.4797 8.72596L49.9253 61.3979C49.3544 61.7164 48.7694 62.0169 48.1705 62.2982L29.5466 9.11709ZM47.2763 62.6998C46.6818 62.9545 46.0745 63.1909 45.455 63.4079L26.7321 9.94411C27.3517 9.72715 27.9737 9.53298 28.5973 9.36118L47.2763 62.6998ZM32.4634 8.58016C33.132 8.49309 33.8003 8.43049 34.467 8.39183L52.4683 59.7954C51.9232 60.1811 51.3619 60.549 50.7851 60.8981L32.4634 8.58016ZM37.5688 8.38341C36.8782 8.34714 36.184 8.33621 35.4876 8.35124L53.2913 59.1903C53.8449 58.7676 54.3806 58.326 54.8977 57.8668L37.5688 8.38341ZM38.6302 8.4593C39.3581 8.52519 40.0813 8.6192 40.7983 8.74062L57.1988 55.5728C56.7142 56.115 56.2077 56.6396 55.6799 57.1453L38.6302 8.4593ZM45.3449 9.9048C46.1611 10.1874 46.9635 10.5069 47.7497 10.8621L61.3079 49.5779C60.915 50.346 60.4872 51.0963 60.0258 51.8264L45.3449 9.9048ZM59.3487 52.848C58.9037 53.489 58.4318 54.1125 57.9338 54.7166L41.9068 8.95118C42.6729 9.11257 43.4307 9.3054 44.1784 9.52876L59.3487 52.848ZM51.5921 12.9675C50.7526 12.4196 49.8853 11.9168 48.9942 11.461L61.9069 48.3334C62.3189 47.4213 62.683 46.4872 62.9973 45.5354L51.5921 12.9675ZM52.96 13.9186C53.9952 14.6844 54.981 15.5226 55.9086 16.429L64.211 40.1371C64.0516 41.4242 63.8042 42.6942 63.4729 43.9386L52.96 13.9186ZM62.8252 27.3146C61.617 23.8647 59.8087 20.7962 57.5584 18.1853L64.4047 37.7352C64.5345 34.2908 64.0333 30.7646 62.8252 27.3146Z" fill="#005DCE"/>
</svg>
