<svg width="161" height="26" viewBox="0 0 161 26" fill="none" xmlns="http://www.w3.org/2000/svg">
<path d="M0.857125 25V1.2H9.35713C11.8278 1.2 13.6978 1.76667 14.9671 2.9C16.2365 4.03333 16.8711 5.49533 16.8711 7.286C16.8711 8.66867 16.5085 9.79067 15.7831 10.652C15.0578 11.5133 14.2191 12.1367 13.2671 12.522V12.76C14.4005 13.168 15.3751 13.8367 16.1911 14.766C17.0071 15.6727 17.4151 16.874 17.4151 18.37C17.4151 19.594 17.1091 20.716 16.4971 21.736C15.9078 22.7333 15.0351 23.5267 13.8791 24.116C12.7231 24.7053 11.3065 25 9.62913 25H0.857125ZM4.46113 11.128H8.91513C10.2978 11.128 11.3518 10.856 12.0771 10.312C12.8025 9.74533 13.1651 8.89533 13.1651 7.762C13.1651 5.518 11.7258 4.396 8.84713 4.396H4.46113V11.128ZM4.46113 21.668H9.15313C10.6265 21.668 11.7598 21.3507 12.5531 20.716C13.3465 20.0813 13.7431 19.152 13.7431 17.928C13.7431 16.7267 13.3238 15.8087 12.4851 15.174C11.6465 14.5167 10.5131 14.188 9.08513 14.188H4.46113V21.668ZM29.5398 25.408C27.9305 25.408 26.4912 25.0453 25.2218 24.32C23.9525 23.5947 22.9552 22.5747 22.2298 21.26C21.5045 19.9227 21.1418 18.3587 21.1418 16.568C21.1418 14.7773 21.5045 13.2247 22.2298 11.91C22.9552 10.5727 23.9525 9.54133 25.2218 8.816C26.4912 8.09067 27.9418 7.728 29.5738 7.728C31.2058 7.728 32.6452 8.09067 33.8918 8.816C35.1612 9.54133 36.1472 10.5727 36.8498 11.91C37.5752 13.2247 37.9378 14.7773 37.9378 16.568C37.9378 18.3587 37.5752 19.9227 36.8498 21.26C36.1245 22.5747 35.1272 23.5947 33.8578 24.32C32.6112 25.0453 31.1718 25.408 29.5398 25.408ZM29.5398 21.974C30.4012 21.974 31.1945 21.7813 31.9198 21.396C32.6452 21.0107 33.2232 20.4213 33.6538 19.628C34.1072 18.812 34.3338 17.792 34.3338 16.568C34.3338 15.3213 34.1072 14.3013 33.6538 13.508C33.2232 12.7147 32.6452 12.1253 31.9198 11.74C31.2172 11.3547 30.4352 11.162 29.5738 11.162C28.7125 11.162 27.9192 11.3547 27.1938 11.74C26.4685 12.1253 25.8792 12.7147 25.4258 13.508C24.9952 14.3013 24.7798 15.3213 24.7798 16.568C24.7798 18.4267 25.2445 19.798 26.1738 20.682C27.1258 21.5433 28.2478 21.974 29.5398 21.974ZM49.9266 25.408C48.3172 25.408 46.8779 25.0453 45.6086 24.32C44.3392 23.5947 43.3419 22.5747 42.6166 21.26C41.8912 19.9227 41.5286 18.3587 41.5286 16.568C41.5286 14.7773 41.8912 13.2247 42.6166 11.91C43.3419 10.5727 44.3392 9.54133 45.6086 8.816C46.8779 8.09067 48.3286 7.728 49.9606 7.728C51.5926 7.728 53.0319 8.09067 54.2786 8.816C55.5479 9.54133 56.5339 10.5727 57.2366 11.91C57.9619 13.2247 58.3246 14.7773 58.3246 16.568C58.3246 18.3587 57.9619 19.9227 57.2366 21.26C56.5112 22.5747 55.5139 23.5947 54.2446 24.32C52.9979 25.0453 51.5586 25.408 49.9266 25.408ZM49.9266 21.974C50.7879 21.974 51.5812 21.7813 52.3066 21.396C53.0319 21.0107 53.6099 20.4213 54.0406 19.628C54.4939 18.812 54.7206 17.792 54.7206 16.568C54.7206 15.3213 54.4939 14.3013 54.0406 13.508C53.6099 12.7147 53.0319 12.1253 52.3066 11.74C51.6039 11.3547 50.8219 11.162 49.9606 11.162C49.0992 11.162 48.3059 11.3547 47.5806 11.74C46.8552 12.1253 46.2659 12.7147 45.8126 13.508C45.3819 14.3013 45.1666 15.3213 45.1666 16.568C45.1666 18.4267 45.6312 19.798 46.5606 20.682C47.5126 21.5433 48.6346 21.974 49.9266 21.974ZM63.4453 25V0.519999H67.0493V15.208L73.5093 8.136H78.0313L70.9933 15.616V15.888L78.9493 25H74.5633L67.0493 16.33V25H63.4453ZM89.17 25.408C87.8327 25.408 86.7107 25.1813 85.804 24.728C84.8973 24.252 84.2173 23.6287 83.764 22.858C83.3107 22.0647 83.084 21.2033 83.084 20.274C83.084 18.6193 83.6847 17.3273 84.886 16.398C86.11 15.4687 87.8327 15.004 90.054 15.004H94.406V14.63C94.406 12.0913 93.2273 10.822 90.87 10.822C89.8953 10.822 89.068 11.0373 88.388 11.468C87.7307 11.876 87.2887 12.5447 87.062 13.474H83.458C83.6393 11.706 84.3987 10.312 85.736 9.292C87.096 8.24933 88.8073 7.728 90.87 7.728C93.3633 7.728 95.1767 8.34 96.31 9.564C97.4433 10.788 98.01 12.4767 98.01 14.63V25H94.95L94.644 22.518H94.406C93.9073 23.3113 93.284 23.9913 92.536 24.558C91.788 25.1247 90.666 25.408 89.17 25.408ZM89.85 22.382C91.3233 22.382 92.4227 21.94 93.148 21.056C93.896 20.1493 94.304 19.0047 94.372 17.622H90.428C89.136 17.622 88.218 17.8373 87.674 18.268C87.1527 18.676 86.892 19.254 86.892 20.002C86.892 20.75 87.1527 21.3393 87.674 21.77C88.218 22.178 88.9433 22.382 89.85 22.382ZM103.539 25V8.136H106.667L106.973 10.652H107.143C107.596 9.836 108.299 9.14467 109.251 8.578C110.203 8.01133 111.302 7.728 112.549 7.728C114.611 7.728 116.164 8.35133 117.207 9.598C118.249 10.8447 118.771 12.6807 118.771 15.106V25H115.167V15.548C115.167 14.1427 114.872 13.0547 114.283 12.284C113.693 11.5133 112.764 11.128 111.495 11.128C110.248 11.128 109.205 11.5473 108.367 12.386C107.551 13.2247 107.143 14.4373 107.143 16.024V25H103.539ZM131.711 25.408C130.147 25.408 128.742 25.0453 127.495 24.32C126.271 23.5947 125.308 22.5747 124.605 21.26C123.903 19.9227 123.551 18.3587 123.551 16.568C123.551 14.7773 123.903 13.2247 124.605 11.91C125.331 10.5953 126.305 9.57533 127.529 8.85C128.753 8.102 130.147 7.728 131.711 7.728C133.865 7.728 135.599 8.272 136.913 9.36C138.251 10.4253 139.101 11.8987 139.463 13.78H135.689C135.463 12.964 134.998 12.318 134.295 11.842C133.615 11.366 132.743 11.128 131.677 11.128C130.907 11.128 130.17 11.332 129.467 11.74C128.787 12.148 128.232 12.76 127.801 13.576C127.393 14.3693 127.189 15.3667 127.189 16.568C127.189 17.7467 127.393 18.744 127.801 19.56C128.232 20.376 128.787 20.9993 129.467 21.43C130.17 21.838 130.907 22.042 131.677 22.042C132.765 22.042 133.638 21.804 134.295 21.328C134.953 20.852 135.417 20.1947 135.689 19.356H139.463C139.01 21.2147 138.126 22.688 136.811 23.776C135.497 24.864 133.797 25.408 131.711 25.408ZM152.064 25.408C150.432 25.408 148.993 25.0453 147.746 24.32C146.499 23.572 145.525 22.5407 144.822 21.226C144.119 19.9113 143.768 18.3813 143.768 16.636C143.768 14.868 144.108 13.3153 144.788 11.978C145.491 10.6407 146.465 9.598 147.712 8.85C148.981 8.102 150.443 7.728 152.098 7.728C153.73 7.728 155.135 8.102 156.314 8.85C157.493 9.57533 158.399 10.55 159.034 11.774C159.691 12.998 160.02 14.3467 160.02 15.82C160.02 16.0467 160.02 16.296 160.02 16.568C160.02 16.8173 160.009 17.1007 159.986 17.418H147.304C147.417 18.982 147.927 20.172 148.834 20.988C149.741 21.7813 150.806 22.178 152.03 22.178C153.095 22.178 153.934 21.9627 154.546 21.532C155.181 21.0787 155.645 20.4667 155.94 19.696H159.578C159.17 21.3053 158.32 22.6653 157.028 23.776C155.736 24.864 154.081 25.408 152.064 25.408ZM152.064 10.856C150.953 10.856 149.967 11.196 149.106 11.876C148.245 12.5333 147.689 13.4627 147.44 14.664H156.416C156.325 13.5307 155.883 12.6127 155.09 11.91C154.297 11.2073 153.288 10.856 152.064 10.856Z" fill="#FFD007"/>
</svg>
