<svg width="135" height="127" viewBox="0 0 135 127" fill="none" xmlns="http://www.w3.org/2000/svg">
<path d="M8 39H13L26 39V58.5H8C6.5 58.5 6 60 6 60V41C6 41 6 39 8 39Z" fill="#FD7676"/>
<path d="M96.7144 50.1597H118.059V28.8151" stroke="black" stroke-width="2" stroke-linecap="round" stroke-linejoin="round"/>
<path d="M38.6306 32.6304C42.6845 28.5765 47.4971 25.3608 52.7937 23.1669C58.0903 20.973 63.7672 19.8438 69.5002 19.8438C75.2333 19.8438 80.9102 20.973 86.2068 23.1669C91.5034 25.3608 96.316 28.5765 100.37 32.6304L117.208 49.4684" stroke="black" stroke-width="1.5" stroke-linecap="round" stroke-linejoin="round"/>
<path d="M42.2857 76.8403H20.9412V98.1849" stroke="black" stroke-width="2" stroke-linecap="round" stroke-linejoin="round"/>
<path d="M99.5772 93.838C95.5234 97.8918 90.7107 101.108 85.4141 103.301C80.1175 105.495 74.4406 106.625 68.7076 106.625C62.9746 106.625 57.2977 105.495 52.0011 103.301C46.7045 101.108 41.8918 97.8918 37.838 93.838L21 77" stroke="black" stroke-width="1.5" stroke-linecap="round" stroke-linejoin="round"/>
<path d="M6 62C6 61.2044 6.31607 60.4413 6.87868 59.8787C7.44129 59.3161 8.20435 59 9 59H26V39H9C8.20435 39 7.44129 39.3161 6.87868 39.8787C6.31607 40.4413 6 41.2044 6 42V62Z" stroke="black" stroke-width="2" stroke-linecap="round" stroke-linejoin="round"/>
<path d="M6 62V63H24" stroke="black" stroke-width="2" stroke-linecap="round" stroke-linejoin="round"/>
<path d="M107.375 85.5312C107.375 84.661 107.711 83.8264 108.309 83.2111C108.906 82.5957 109.717 82.25 110.562 82.25H128.625V60.375H110.562C109.717 60.375 108.906 60.7207 108.309 61.3361C107.711 61.9514 107.375 62.786 107.375 63.6562V85.5312Z" fill="#FFDC44" stroke="black" stroke-width="2" stroke-linecap="round" stroke-linejoin="round"/>
<path d="M107.375 85.5312V86.625H126.5" stroke="black" stroke-width="2" stroke-linecap="round" stroke-linejoin="round"/>
<path d="M62 67C61.5 67.3333 60.4 68 60 68C60.1667 68.6667 61.7 70.5 66.5 72.5C71.3 74.5 74.8333 72 76 70.5L75 69L71.5 68V65L77 63L80.5 66C80.6667 64.8333 80.9 61.7 80.5 58.5C80.1 55.3 77.3333 52.8333 76 52V55.5L72.5 59L69 59.5L65 57.5C64 58.8333 62 61.6 62 62V67Z" fill="#005DCE"/>
<path d="M69.5 73.125C75.9203 73.125 81.125 67.9203 81.125 61.5C81.125 55.0797 75.9203 49.875 69.5 49.875C63.0797 49.875 57.875 55.0797 57.875 61.5C57.875 67.9203 63.0797 73.125 69.5 73.125Z" stroke="black" stroke-width="2" stroke-linecap="round" stroke-linejoin="round"/>
<path d="M60.0046 68.2078L61.4187 67.3542C61.5608 67.2684 61.6784 67.1476 61.7604 67.0034C61.8424 66.8591 61.8859 66.6962 61.8868 66.5303L61.9114 62.1553C61.9124 61.9725 61.9651 61.7937 62.0635 61.6396L64.4663 57.8739C64.5373 57.7626 64.6303 57.667 64.7396 57.5929C64.8489 57.5189 64.9722 57.4679 65.1019 57.4433C65.2317 57.4186 65.365 57.4207 65.4939 57.4495C65.6228 57.4782 65.7444 57.533 65.8513 57.6105L68.2315 59.3349C68.4331 59.481 68.6832 59.5438 68.9299 59.5104L72.742 58.9942C72.9758 58.9625 73.19 58.8466 73.3445 58.6681L76.0275 55.568C76.1904 55.3798 76.2746 55.1362 76.2627 54.8876L76.1212 51.9446" stroke="black" stroke-width="2" stroke-linecap="round" stroke-linejoin="round"/>
<path d="M76.6527 70.6647L75.3532 69.3626C75.2316 69.2408 75.0798 69.1536 74.9134 69.1099L72.3149 68.428C72.0843 68.3675 71.8841 68.224 71.7526 68.0251C71.6211 67.8262 71.5676 67.5857 71.6024 67.3498L71.8912 65.3886C71.9155 65.2231 71.9824 65.0666 72.0852 64.9346C72.188 64.8026 72.3232 64.6994 72.4778 64.6352L76.1651 63.1025C76.3354 63.0317 76.5224 63.011 76.7041 63.0429C76.8858 63.0747 77.0546 63.1577 77.1907 63.2822L80.2053 66.0393" stroke="black" stroke-width="2" stroke-linecap="round" stroke-linejoin="round"/>
</svg>
