<svg width="35" height="35" viewBox="0 0 35 35" fill="none" xmlns="http://www.w3.org/2000/svg">
<path d="M33.6 0.36084H1.4C0.625625 0.36084 0 0.96859 0 1.72084V33.0008C0 33.7531 0.625625 34.3608 1.4 34.3608H33.6C34.3744 34.3608 35 33.7531 35 33.0008V1.72084C35 0.96859 34.3744 0.36084 33.6 0.36084ZM29.5575 10.2846H26.7619C24.57 10.2846 24.1456 11.2961 24.1456 12.7836V16.0603H29.3781L28.6956 21.1901H24.1456V34.3608H18.69V21.1943H14.1269V16.0603H18.69V12.2778C18.69 7.88759 21.4506 5.49484 25.4844 5.49484C27.4181 5.49484 29.0763 5.63509 29.5619 5.69884V10.2846H29.5575Z" fill="white"/>
</svg>
