<svg width="39" height="39" viewBox="0 0 39 39" fill="none" xmlns="http://www.w3.org/2000/svg">
<path fill-rule="evenodd" clip-rule="evenodd" d="M12.0899 0.114326C14.1218 0.0207865 14.7696 0 19.9455 0C25.1213 0 25.7692 0.0225188 27.7993 0.114326C29.8295 0.206134 31.2153 0.530058 32.4278 0.999488C33.6975 1.47931 34.8495 2.22936 35.8022 3.1994C36.7722 4.15039 37.5205 5.30058 37.9986 6.57202C38.4698 7.78457 38.792 9.17035 38.8855 11.197C38.9791 13.2324 38.9998 13.8802 38.9998 19.0544C38.9998 24.2302 38.9773 24.8781 38.8855 26.91C38.7937 28.9366 38.4698 30.3224 37.9986 31.535C37.5205 32.8066 36.771 33.9587 35.8022 34.9111C34.8495 35.8811 33.6975 36.6294 32.4278 37.1075C31.2153 37.5787 29.8295 37.9009 27.8028 37.9944C25.7692 38.0879 25.1213 38.1087 19.9455 38.1087C14.7696 38.1087 14.1218 38.0862 12.0899 37.9944C10.0632 37.9026 8.67742 37.5787 7.46487 37.1075C6.19329 36.6294 5.04119 35.8798 4.08878 34.9111C3.1194 33.9595 2.36924 32.8079 1.8906 31.5367C1.42117 30.3242 1.09898 28.9384 1.00544 26.9117C0.9119 24.8763 0.891113 24.2285 0.891113 19.0544C0.891113 13.8785 0.913632 13.2307 1.00544 11.2005C1.09725 9.17035 1.42117 7.78457 1.8906 6.57202C2.36994 5.30072 3.12068 4.1492 4.09051 3.19767C5.04157 2.2285 6.19251 1.47835 7.46314 0.999488C8.67569 0.530058 10.0615 0.207866 12.0882 0.114326H12.0899ZM27.6452 3.54411C25.6358 3.4523 25.033 3.43325 19.9455 3.43325C14.858 3.43325 14.2551 3.4523 12.2458 3.54411C10.3871 3.62899 9.37897 3.93906 8.70687 4.20062C7.81824 4.54706 7.18252 4.9576 6.51561 5.6245C5.88343 6.23953 5.39692 6.98824 5.09173 7.81575C4.83017 8.48785 4.5201 9.496 4.43522 11.3547C4.34342 13.364 4.32436 13.9668 4.32436 19.0544C4.32436 24.1419 4.34342 24.7447 4.43522 26.7541C4.5201 28.6127 4.83017 29.6209 5.09173 30.293C5.3966 31.1192 5.88336 31.8693 6.51561 32.4842C7.13055 33.1165 7.8806 33.6032 8.70687 33.9081C9.37897 34.1697 10.3871 34.4797 12.2458 34.5646C14.2551 34.6564 14.8562 34.6755 19.9455 34.6755C25.0347 34.6755 25.6358 34.6564 27.6452 34.5646C29.5038 34.4797 30.512 34.1697 31.1841 33.9081C32.0727 33.5617 32.7084 33.1511 33.3753 32.4842C34.0076 31.8693 34.4944 31.1192 34.7992 30.293C35.0608 29.6209 35.3708 28.6127 35.4557 26.7541C35.5475 24.7447 35.5666 24.1419 35.5666 19.0544C35.5666 13.9668 35.5475 13.364 35.4557 11.3547C35.3708 9.496 35.0608 8.48785 34.7992 7.81575C34.4528 6.92713 34.0422 6.2914 33.3753 5.6245C32.7603 4.99237 32.0116 4.50586 31.1841 4.20062C30.512 3.93906 29.5038 3.62899 27.6452 3.54411ZM17.5117 24.9283C18.8709 25.4941 20.3844 25.5705 21.7936 25.1443C23.2029 24.7182 24.4205 23.8161 25.2384 22.592C26.0564 21.3679 26.4241 19.8977 26.2785 18.4327C26.133 16.9676 25.4834 15.5985 24.4406 14.5593C23.7758 13.8949 22.972 13.3862 22.0871 13.0698C21.2021 12.7534 20.258 12.6371 19.3227 12.7294C18.3875 12.8216 17.4843 13.1201 16.6782 13.6033C15.8721 14.0865 15.1832 14.7424 14.661 15.5239C14.1389 16.3053 13.7964 17.1927 13.6584 18.1224C13.5204 19.052 13.5902 20.0007 13.8629 20.9001C14.1355 21.7995 14.6042 22.6272 15.2351 23.3238C15.866 24.0203 16.6436 24.5683 17.5117 24.9283ZM13.0201 12.129C13.9295 11.2195 15.0092 10.4981 16.1975 10.0059C17.3857 9.51371 18.6593 9.26038 19.9455 9.26038C21.2316 9.26038 22.5052 9.5137 23.6935 10.0059C24.8817 10.4981 25.9614 11.2195 26.8709 12.129C27.7803 13.0384 28.5017 14.1181 28.9939 15.3064C29.4861 16.4946 29.7395 17.7682 29.7395 19.0544C29.7395 20.3405 29.4861 21.6141 28.9939 22.8024C28.5017 23.9906 27.7803 25.0703 26.8709 25.9798C25.0341 27.8165 22.543 28.8484 19.9455 28.8484C17.3479 28.8484 14.8568 27.8165 13.0201 25.9798C11.1834 24.143 10.1515 21.6519 10.1515 19.0544C10.1515 16.4568 11.1834 13.9657 13.0201 12.129ZM31.9116 10.7189C32.137 10.5063 32.3174 10.2507 32.4422 9.96712C32.567 9.68354 32.6336 9.37781 32.6381 9.06802C32.6427 8.75824 32.585 8.45069 32.4685 8.1636C32.352 7.87651 32.1791 7.6157 31.9601 7.39663C31.741 7.17755 31.4802 7.00466 31.1931 6.88818C30.906 6.77171 30.5984 6.71402 30.2887 6.71854C29.9789 6.72305 29.6731 6.78968 29.3896 6.91448C29.106 7.03927 28.8503 7.21969 28.6377 7.44506C28.2243 7.88336 27.9979 8.46554 28.0067 9.06802C28.0155 9.6705 28.2587 10.2458 28.6848 10.6719C29.1108 11.098 29.6862 11.3412 30.2887 11.35C30.8911 11.3588 31.4733 11.1324 31.9116 10.7189Z" fill="white"/>
</svg>
