<svg width="120" height="128" viewBox="0 0 120 128" fill="none" xmlns="http://www.w3.org/2000/svg">
<circle cx="17" cy="27.8008" r="14" fill="#FFDC44"/>
<path d="M18 20.9258V23.1758" stroke="black" stroke-width="2" stroke-linecap="round" stroke-linejoin="round"/>
<path d="M18 34.4258V36.6758" stroke="black" stroke-width="2" stroke-linecap="round" stroke-linejoin="round"/>
<path d="M18 42.3008C25.4558 42.3008 31.5 36.2566 31.5 28.8008C31.5 21.3449 25.4558 15.3008 18 15.3008C10.5442 15.3008 4.5 21.3449 4.5 28.8008C4.5 36.2566 10.5442 42.3008 18 42.3008Z" stroke="black" stroke-width="2" stroke-linecap="round" stroke-linejoin="round"/>
<path d="M14.625 34.4258H19.6875C20.4334 34.4258 21.1488 34.1295 21.6762 33.602C22.2037 33.0746 22.5 32.3592 22.5 31.6133C22.5 30.8674 22.2037 30.152 21.6762 29.6245C21.1488 29.0971 20.4334 28.8008 19.6875 28.8008H16.3125C15.5666 28.8008 14.8512 28.5045 14.3238 27.977C13.7963 27.4496 13.5 26.7342 13.5 25.9883C13.5 25.2424 13.7963 24.527 14.3238 23.9995C14.8512 23.4721 15.5666 23.1758 16.3125 23.1758H21.375" stroke="black" stroke-width="2" stroke-linecap="round" stroke-linejoin="round"/>
<circle cx="47.5" cy="17.3008" r="9.5" fill="#FFDC44"/>
<path d="M113.792 72.7515L103.75 77.8206L90.75 52.6854L100.894 47.5647C101.656 47.18 102.537 47.1128 103.348 47.3777C104.158 47.6425 104.834 48.2182 105.228 48.9808L115.219 68.2979C115.419 68.6842 115.54 69.1067 115.577 69.5409C115.613 69.9752 115.563 70.4123 115.43 70.8269C115.297 71.2415 115.084 71.6252 114.803 71.9557C114.521 72.2861 114.178 72.5567 113.792 72.7515Z" fill="#FFDC44" stroke="black" stroke-width="2" stroke-linecap="round" stroke-linejoin="round"/>
<path d="M32.2497 77.3811L22.2082 72.3121C21.8221 72.1172 21.4784 71.8467 21.1971 71.5162C20.9157 71.1858 20.7024 70.802 20.5695 70.3875C20.4366 69.9729 20.3868 69.5357 20.4231 69.1015C20.4594 68.6673 20.581 68.2447 20.7807 67.8584L30.7716 48.5413C31.166 47.7788 31.8412 47.2031 32.6519 46.9382C33.4626 46.6734 34.3438 46.7405 35.1059 47.1252L45.2497 52.2459L32.2497 77.3811Z" fill="#FD7676" stroke="black" stroke-width="2" stroke-linecap="round" stroke-linejoin="round"/>
<path d="M103.75 77.8207L97.25 85.498L82.3012 100.591C81.9043 100.991 81.4115 101.281 80.8706 101.433C80.3297 101.584 79.7593 101.591 79.2148 101.454L55.6698 95.5108C55.2282 95.3994 54.8147 95.1955 54.4561 94.9124L32.25 77.3811" stroke="black" stroke-width="2" stroke-linecap="round" stroke-linejoin="round"/>
<path d="M97.2502 85.4978L79.3752 72.3728L74.1752 76.3103C71.9249 78.0143 69.188 78.9353 66.3752 78.9353C63.5624 78.9353 60.8254 78.0143 58.5752 76.3103L56.373 74.6428C56.0005 74.3608 55.6924 74.0012 55.4695 73.5884C55.2466 73.1757 55.1142 72.7194 55.0812 72.2504C55.0482 71.7815 55.1153 71.3109 55.2782 70.8705C55.441 70.43 55.6956 70.03 56.0249 69.6976L71.9233 53.6464C72.2251 53.3417 72.5833 53.1 72.9776 52.9351C73.372 52.7702 73.7946 52.6853 74.2214 52.6853H90.7502" stroke="black" stroke-width="2" stroke-linecap="round" stroke-linejoin="round"/>
<path d="M45.4834 52.2459L66.3321 46.1093C67.0769 45.8901 67.8748 45.9471 68.5816 46.27L82.6251 52.6855" stroke="black" stroke-width="2" stroke-linecap="round" stroke-linejoin="round"/>
<path d="M61.5 110.107L49.2559 107.017C48.759 106.891 48.2985 106.649 47.912 106.31L38.75 98.2695" stroke="black" stroke-width="2" stroke-linecap="round" stroke-linejoin="round"/>
<path d="M50.9993 11.7337L50.3667 13.2165" stroke="black" stroke-width="2" stroke-linecap="round" stroke-linejoin="round"/>
<path d="M47.2034 20.6308L46.5708 22.1136" stroke="black" stroke-width="2" stroke-linecap="round" stroke-linejoin="round"/>
<path d="M44.9893 25.8207C49.903 27.917 55.5858 25.6331 57.6821 20.7193C59.7784 15.8056 57.4944 10.1229 52.5807 8.0266C47.6669 5.93031 41.9842 8.21428 39.8879 13.128C37.7916 18.0417 40.0756 23.7244 44.9893 25.8207Z" stroke="black" stroke-width="2" stroke-linecap="round" stroke-linejoin="round"/>
<path d="M44.9792 19.6819L48.3156 21.1052C48.8072 21.315 49.362 21.3208 49.8579 21.1215C50.3538 20.9222 50.7502 20.534 50.96 20.0424C51.1697 19.5508 51.1755 18.9961 50.9762 18.5002C50.7769 18.0043 50.3888 17.6078 49.8972 17.3981L47.6729 16.4492C47.1813 16.2395 46.7932 15.8431 46.5939 15.3472C46.3945 14.8512 46.4004 14.2965 46.6101 13.8049C46.8198 13.3133 47.2163 12.9251 47.7122 12.7258C48.2081 12.5265 48.7628 12.5324 49.2544 12.7421L52.5908 14.1655" stroke="black" stroke-width="2" stroke-linecap="round" stroke-linejoin="round"/>
</svg>
