<svg width="40" height="33" viewBox="0 0 40 33" fill="none" xmlns="http://www.w3.org/2000/svg">
<path d="M39.8087 4.25707C38.3623 4.89799 36.8085 5.33105 35.175 5.52679C36.8605 4.51828 38.1214 2.931 38.7226 1.06114C37.1391 2.00171 35.406 2.66377 33.5987 3.01854C32.3834 1.72088 30.7736 0.860763 29.0193 0.57174C27.265 0.282716 25.4644 0.580951 23.897 1.42014C22.3296 2.25933 21.0831 3.59253 20.351 5.21274C19.6189 6.83295 19.4423 8.64954 19.8484 10.3805C16.6398 10.2193 13.5009 9.38538 10.6355 7.93267C7.77006 6.47996 5.2421 4.44097 3.21568 1.94803C2.5228 3.14326 2.12439 4.52903 2.12439 6.00488C2.12361 7.33348 2.45079 8.64173 3.0769 9.81355C3.703 10.9854 4.60866 11.9845 5.71354 12.7224C4.43218 12.6816 3.17909 12.3354 2.05856 11.7125V11.8165C2.05843 13.6799 2.703 15.4859 3.8829 16.9282C5.0628 18.3705 6.70535 19.3601 8.53185 19.7292C7.34318 20.0509 6.09694 20.0983 4.88727 19.8678C5.4026 21.4712 6.40641 22.8732 7.75819 23.8777C9.10996 24.8823 10.742 25.4389 12.4259 25.4698C9.56743 27.7137 6.03727 28.9309 2.40327 28.9255C1.75955 28.9257 1.11637 28.8881 0.477051 28.813C4.16576 31.1847 8.45969 32.4434 12.8451 32.4385C27.6901 32.4385 35.8056 20.1432 35.8056 9.4797C35.8056 9.13326 35.7969 8.78335 35.7813 8.43691C37.3599 7.29533 38.7225 5.88171 39.8053 4.26227L39.8087 4.25707Z" fill="white"/>
</svg>
