<svg width="108" height="108" viewBox="0 0 108 108" fill="none" xmlns="http://www.w3.org/2000/svg">
<path d="M97.8462 52.4799L74.0345 43.5316C73.4367 43.307 72.77 43.6095 72.5454 44.2073L70.9185 48.5367C70.6938 49.1344 70.9963 49.8011 71.5941 50.0257L95.4057 58.974C96.0035 59.1986 96.6702 58.8961 96.8948 58.2984L98.5218 53.969C98.7464 53.3712 98.4439 52.7045 97.8462 52.4799Z" stroke="black" stroke-width="2" stroke-linecap="round" stroke-linejoin="round"/>
<path d="M94.3235 58.5672L90.6628 68.3084C90.555 68.5954 90.3375 68.8279 90.0582 68.9546C89.779 69.0813 89.4608 69.0919 89.1737 68.984L69.6915 61.6627C69.4044 61.5548 69.172 61.3373 69.0453 61.0581C68.9186 60.7788 68.908 60.4607 69.0159 60.1736L72.6765 50.4325" fill="#FD7676"/>
<path d="M94.3235 58.5672L90.6628 68.3084C90.555 68.5954 90.3375 68.8279 90.0582 68.9546C89.779 69.0813 89.4608 69.0919 89.1737 68.984L69.6915 61.6627C69.4044 61.5548 69.172 61.3373 69.0453 61.0581C68.9186 60.7788 68.908 60.4607 69.0159 60.1736L72.6765 50.4325" stroke="black" stroke-width="2" stroke-linecap="round" stroke-linejoin="round"/>
<path d="M85.9404 48.0058L79.4326 65.3233" stroke="black" stroke-width="2" stroke-linecap="round" stroke-linejoin="round"/>
<path d="M92.6383 48.776C90.5324 49.7314 85.9404 48.0058 85.9404 48.0058C85.9404 48.0058 87.666 43.4138 89.7719 42.4583C90.6096 42.0788 91.5637 42.0475 92.4244 42.3713C93.2852 42.695 93.9822 43.3473 94.3621 44.1848C94.7421 45.0222 94.7739 45.9763 94.4507 46.8372C94.1274 47.6982 93.4755 48.3955 92.6383 48.776V48.776Z" stroke="black" stroke-width="2" stroke-linecap="round" stroke-linejoin="round"/>
<path d="M80.3928 44.1742C81.3483 46.2801 85.9403 48.0058 85.9403 48.0058C85.9403 48.0058 87.6659 43.4138 86.7105 41.3079C86.33 40.4706 85.6327 39.8187 84.7718 39.4955C83.9108 39.1722 82.9567 39.2041 82.1193 39.584C81.2818 39.964 80.6295 40.661 80.3058 41.5217C79.982 42.3825 80.0133 43.3366 80.3928 44.1742V44.1742Z" stroke="black" stroke-width="2" stroke-linecap="round" stroke-linejoin="round"/>
<path d="M33.9107 63.4821L9.17583 69.4194C8.55489 69.5685 8.17234 70.1927 8.32139 70.8136L9.4009 75.3109C9.54995 75.9318 10.1741 76.3143 10.7951 76.1653L35.53 70.228C36.1509 70.0789 36.5335 69.4547 36.3844 68.8338L35.3049 64.3365C35.1559 63.7156 34.5317 63.3331 33.9107 63.4821Z" stroke="black" stroke-width="2" stroke-linecap="round" stroke-linejoin="round"/>
<path d="M34.4057 70.4979L36.8346 80.6167C36.9062 80.9149 36.8564 81.2293 36.6961 81.4907C36.5359 81.7522 36.2783 81.9393 35.9802 82.0109L15.7425 86.8687C15.4443 86.9402 15.1299 86.8904 14.8685 86.7302C14.607 86.57 14.4199 86.3124 14.3483 86.0142L11.9194 75.8954" fill="#FD7676"/>
<path d="M34.4057 70.4979L36.8346 80.6167C36.9062 80.9149 36.8564 81.2293 36.6961 81.4907C36.5359 81.7522 36.2783 81.9393 35.9802 82.0109L15.7425 86.8687C15.4443 86.9402 15.1299 86.8904 14.8685 86.7302C14.607 86.57 14.4199 86.3124 14.3483 86.0142L11.9194 75.8954" stroke="black" stroke-width="2" stroke-linecap="round" stroke-linejoin="round"/>
<path d="M21.5432 66.4508L25.8613 84.4398" stroke="black" stroke-width="2" stroke-linecap="round" stroke-linejoin="round"/>
<path d="M27.5217 63.3341C26.3133 65.3058 21.5433 66.4508 21.5433 66.4508C21.5433 66.4508 20.3983 61.6807 21.6066 59.709C22.0876 58.9252 22.8601 58.3645 23.7544 58.1501C24.6487 57.9357 25.5915 58.0852 26.3756 58.5657C27.1597 59.0463 27.7209 59.8185 27.9358 60.7127C28.1507 61.6068 28.0018 62.5497 27.5217 63.3341V63.3341Z" stroke="black" stroke-width="2" stroke-linecap="round" stroke-linejoin="round"/>
<path d="M14.8015 66.3874C16.7731 67.5958 21.5432 66.4508 21.5432 66.4508C21.5432 66.4508 20.3982 61.6807 18.4265 60.4724C17.6422 59.9923 16.6993 59.8433 15.8051 60.0582C14.9109 60.2731 14.1387 60.8343 13.6582 61.6184C13.1776 62.4025 13.0281 63.3453 13.2425 64.2396C13.4569 65.1339 14.0176 65.9064 14.8015 66.3874V66.3874Z" stroke="black" stroke-width="2" stroke-linecap="round" stroke-linejoin="round"/>
<path d="M26.9197 10.2398L40.5315 6.96598L49.2082 13.1073L39.104 30.9652L21.9845 19.6549L26.9197 10.2398Z" fill="#005DCE" stroke="black" stroke-linecap="round" stroke-linejoin="round"/>
<path d="M41.5625 14.9461L39.104 30.9652L29.63 17.8161L33.7255 8.60291L41.5625 14.9461Z" stroke="black" stroke-linecap="round" stroke-linejoin="round"/>
<path d="M21.9846 19.6549L49.2083 13.1073" stroke="black" stroke-linecap="round" stroke-linejoin="round"/>
<path d="M71.7777 86.1676L80.1323 89.4522L82.4328 95.8685L70.5589 101.535L65.7235 89.2994L71.7777 86.1676Z" fill="#005DCE" stroke="black" stroke-linecap="round" stroke-linejoin="round"/>
<path d="M77.74 94.0236L70.5589 101.535L70.4161 91.1443L75.9549 87.8099L77.74 94.0236Z" stroke="black" stroke-linecap="round" stroke-linejoin="round"/>
<path d="M65.7234 89.2994L82.4327 95.8685" stroke="black" stroke-linecap="round" stroke-linejoin="round"/>
</svg>
